<svg width="15" height="17" viewBox="0 0 15 17" fill="none" xmlns="http://www.w3.org/2000/svg">
<path d="M2.43352 2.43352L3.24471 0H3.98047L4.79163 2.43352L7.22518 3.24471V3.98047L4.79163 4.79163L3.98047 7.22518H3.24471L2.43352 4.79163L0 3.98047V3.24471L2.43352 2.43352Z" fill="white" fill-opacity="0.9"/>
<path fill-rule="evenodd" clip-rule="evenodd" d="M2.449 9.42802C2.449 9.16537 2.4653 8.90651 2.49698 8.65246H4.77562L5.93894 5.93804L8.65335 4.77473L8.65339 3.22363C12.08 3.22363 14.8577 6.00144 14.8577 9.42802C14.8577 12.8546 12.0799 15.6324 8.65335 15.6324C7.2196 15.6324 5.89943 15.146 4.84878 14.3293L2.22182 16.9563L1.125 15.8596L3.752 13.2326C2.93531 12.1819 2.449 10.8618 2.449 9.42802ZM7.87782 6.32583V8.65246H5.55119V10.2036H7.87782V12.5302H9.42892V10.2036H11.7555V8.65246H9.42892V6.32583H7.87782Z" fill="white" fill-opacity="0.9"/>
</svg>
